<svg xmlns="http://www.w3.org/2000/svg" xml:space="preserve" width="2000" height="240" data-id="lg_7OwGZpgmEqhNevZFkj"
    data-version="1" viewBox="0 0 2000 240">
    <g data-padding="20">
        <g transform="translate(10 3.768)scale(.9686)">
            <rect width="454.227" height="239.56" x="356.631" y="-399.9" fill="none" rx="0" ry="0"
                transform="translate(529.49 400.12)" />
            <path
                d="M926.184 187.87q-12.51 0-23.43-5.51-10.91-5.51-17/Users/joevu/Downloads/logo.png.49-15.69l9.12-10.6q6.15 8.9 14.2 13.57 8.06 4.66 17.81 4.66 27.56 0 27.56-32.65V51.77h-54.27V38.2h69.75v102.82q0 23.53-10.92 35.19t-32.33 11.66m102.18-1.28h-15.05V75.29h15.05Zm-7.42-135.89q-4.66 0-7.84-3.18t-3.18-7.64q0-4.45 3.18-7.52 3.18-3.08 7.84-3.08 4.67 0 7.85 2.97t3.18 7.42q0 4.67-3.08 7.85-3.07 3.18-7.95 3.18m64.45 135.9h-15.05V75.3h14.42v30.31l-1.49-5.3q4.67-12.72 15.69-19.39 11.02-6.68 27.35-6.68v14.63q-.85 0-1.7-.11t-1.69-.11q-17.6 0-27.56 10.71-9.97 10.71-9.97 30.42Zm154.13 0h-14.42v-24.59l-.64-4.03v-41.13q0-14.2-7.95-21.84-7.95-7.63-23.63-7.63-10.82 0-20.57 3.61-9.75 3.6-16.53 9.54l-6.79-11.24q8.48-7.21 20.35-11.13 11.88-3.92 25.02-3.92 21.62 0 33.39 10.7 11.77 10.71 11.77 32.55Zm-52.79 1.06q-12.51 0-21.73-4.14-9.22-4.13-14.1-11.44-4.88-7.32-4.88-16.86 0-8.69 4.14-15.79 4.13-7.1 13.57-11.45 9.43-4.35 25.33-4.35h38.37v11.24h-37.95q-16.11 0-22.36 5.72-6.26 5.73-6.26 14.21 0 9.54 7.42 15.26 7.42 5.73 20.78 5.73 12.72 0 21.94-5.83t13.46-16.86l3.4 10.39q-4.24 11.02-14.74 17.6-10.49 6.57-26.39 6.57" />
            <path fill="#ff4136"
                d="M847.834 123.68a68.8 68.8 0 0 0-23.488-51.712 68.8 68.8 0 0 0-51.712-23.488c-37.936 0-68.8 30.864-68.8 68.8a68.8 68.8 0 0 0 23.488 51.696 68.8 68.8 0 0 0 51.712 23.504h.8c37.555 0 68-30.445 68-68Zm-117.072 34.192a59.2 59.2 0 0 1-10.928-33.792c.227-32.813 26.77-59.357 59.584-59.584a59.2 59.2 0 0 1 33.792 10.912 58.24 58.24 0 0 1 17.824 41.872c-.035 32.24-26.16 58.365-58.4 58.4a58.24 58.24 0 0 1-41.872-17.808m-25.328-40.592c0-37.056 30.144-67.2 67.2-67.2 15.776 0 30.288 5.472 41.76 14.608a68.8 68.8 0 0 0-35.36-9.808c-37.936 0-68.8 30.864-68.8 68.8a68.4 68.4 0 0 0 9.808 35.36 66.88 66.88 0 0 1-14.608-41.76m73.6 65.6a59.2 59.2 0 0 1-41.44-16.976 59.68 59.68 0 0 0 35.04 11.376c33.123-.035 59.965-26.877 60-60 0-13.056-4.24-25.168-11.376-35.04a59.2 59.2 0 0 1 16.976 41.44c0 32.64-26.56 59.2-59.2 59.2" />
        </g>
        <path fill="transparent" stroke="transparent" d="M681.5 0h637v240h-637z" />
    </g>
</svg>